<?xml version="1.0" encoding="iso-8859-1"?>
<!-- Generator: Adobe Illustrator 19.0.0, SVG Export Plug-In . SVG Version: 6.00 Build 0)  -->
<svg version="1.1" id="Layer_1" xmlns="http://www.w3.org/2000/svg" xmlns:xlink="http://www.w3.org/1999/xlink" x="0px" y="0px"
	 viewBox="0 0 512.216 512.216" style="enable-background:new 0 0 512.216 512.216;" xml:space="preserve">
<g>
	<g>
		<path d="M509.025,3.168c-2.56-2.56-6.08-3.627-9.6-2.987c-26.453,5.12-62.293,14.08-93.44,29.227
			c0.107-1.493,0.107-2.773,0.213-3.733c0.213-5.867-4.267-10.88-10.24-11.093c-0.64,0-1.28,0-1.92,0.107
			c-23.573,3.307-54.507,15.68-86.827,34.453c-0.107-1.92-0.32-3.413-0.427-4.48c-0.747-5.867-6.187-9.92-11.947-9.173
			c-0.427,0.107-0.853,0.107-1.387,0.32c-19.733,5.333-52.267,25.067-71.893,41.173c-1.28-2.453-2.453-4.693-3.2-6.187
			c-2.667-4.8-8.533-6.72-13.547-4.587c-19.733,8.533-47.893,33.28-67.627,55.893c-0.96-2.027-1.813-3.627-2.347-4.587
			c-2.88-5.12-9.493-6.827-14.507-3.947c-0.213,0.107-0.427,0.32-0.64,0.427c-18.773,12.693-36.587,37.227-47.573,65.067
			c-2.133-1.813-3.84-3.307-4.587-3.84c-4.587-3.2-10.88-2.347-14.4,2.027c-13.333,16.32-20.907,50.027-24.427,70.08
			c-1.92-1.067-3.733-1.92-4.8-2.453c-5.333-2.453-11.733-0.107-14.187,5.227c-0.107,0.213-0.213,0.427-0.32,0.747
			c-8,21.44,0.32,54.187,6.4,78.08l0.747,2.88c-2.24-0.32-4.16-0.427-5.44-0.533c-3.2-0.213-6.4,1.173-8.427,3.627
			c-2.133,2.453-2.987,5.76-2.453,8.853c5.653,30.933,19.84,60.587,42.133,88.32c0.213,0.32,0.427,0.533,0.747,0.853l8.427,8.427
			c-8.32,10.667-24.533,31.573-41.387,53.44c-3.733,4.587-2.987,11.307,1.6,15.04s11.307,2.987,15.04-1.6
			c0.107-0.107,0.213-0.213,0.213-0.32c15.787-20.48,31.04-40,39.68-51.2l10.987,10.987c0.213,0.213,0.533,0.533,0.853,0.747
			c28.053,22.827,58.133,37.333,89.493,42.987c3.2,0.64,6.4-0.32,8.853-2.453c2.453-2.133,3.84-5.227,3.733-8.427
			c0-1.28-0.213-3.2-0.533-5.44l2.987,0.747c23.893,6.08,56.64,14.4,78.08,6.4c5.547-2.027,8.32-8.213,6.293-13.76
			c-0.107-0.213-0.213-0.533-0.32-0.747c-0.533-1.173-1.387-2.88-2.453-4.8c20.053-3.52,53.867-11.093,70.187-24.32
			c4.267-3.52,5.227-9.707,2.027-14.293c-0.533-0.747-2.027-2.453-3.84-4.587c27.84-10.987,52.373-28.8,65.067-47.573
			c3.307-4.907,2.027-11.52-2.88-14.827c-0.213-0.107-0.427-0.32-0.747-0.427c-1.067-0.533-2.667-1.387-4.587-2.347
			c22.613-19.733,47.467-47.787,56-67.52c2.133-5.013,0.213-10.88-4.587-13.547c-1.493-0.853-3.733-1.92-6.187-3.2
			c16.107-19.627,35.84-52.16,41.173-71.787c1.493-5.653-1.813-11.52-7.467-13.12c-0.427-0.107-0.96-0.213-1.387-0.32
			c-1.067-0.107-2.56-0.32-4.48-0.427c18.773-32.213,31.147-63.147,34.56-86.72c0.427-3.093-0.533-6.293-2.667-8.64
			c-2.027-2.347-5.12-3.627-8.32-3.52l-3.733,0.213c15.147-31.04,24.107-66.88,29.227-93.333
			C512.545,9.248,511.478,5.621,509.025,3.168z M455.052,112.395c-3.093,5.013-1.493,11.627,3.52,14.613
			c1.813,1.173,4.053,1.707,6.187,1.6l7.147-0.427l1.813-0.107c-5.973,22.72-19.627,51.84-37.973,80.64
			c-3.2,5.013-1.707,11.52,3.2,14.72c1.6,1.067,3.52,1.6,5.547,1.707c0.96,0,3.52,0.107,6.613,0.32
			c-9.707,21.12-29.44,50.24-40.64,60.587c-4.373,3.947-4.693,10.667-0.747,15.04c0.96,1.067,2.133,1.92,3.52,2.56
			c1.707,0.747,5.013,2.347,8.427,3.947c-12.267,19.84-38.613,46.72-58.027,61.12c-4.693,3.52-5.76,10.133-2.24,14.933
			c1.067,1.387,2.453,2.56,3.947,3.307l3.52,1.6l3.52,1.6c-14.187,14.613-36.8,27.627-61.12,34.667
			c-5.653,1.6-8.96,7.573-7.253,13.227c0.427,1.6,1.28,3.093,2.453,4.373c1.067,1.067,3.093,3.307,5.12,5.653
			c-17.493,8.213-46.72,14.08-65.173,16.32c-5.867,0.747-10.027,6.08-9.28,11.84c0.107,1.28,0.533,2.56,1.173,3.733
			c0.32,0.64,1.28,2.24,2.453,4.267l0.107,0.213c-16.107,0.533-37.227-5.227-52.587-9.067c-7.147-1.813-13.44-3.413-18.133-4.267
			c-5.76-0.96-11.307,2.88-12.373,8.747c-0.107,0.427-0.107,0.853-0.107,1.28c-0.107,2.027,0,4.16,0.107,6.187
			c-22.613-6.4-44.48-18.133-65.28-34.88l-14.827-14.933l3.093-4.16c61.013-80.427,203.84-268.587,329.28-327.467
			c5.333-2.453,7.68-8.853,5.12-14.187c-2.453-5.333-8.853-7.68-14.187-5.12c-130.133,61.12-275.2,252.267-337.173,333.867
			l-1.387,1.813l-3.733-3.733c-16.427-20.373-27.947-41.92-34.133-64.107c2.027,0.107,4.16,0.213,6.187,0.107
			c5.867-0.32,10.453-5.227,10.133-11.093c0-0.427-0.107-0.853-0.107-1.387c-0.853-4.8-2.453-10.987-4.267-18.133
			c-3.947-15.36-9.387-36.693-9.173-52.587l0.107,0.107c2.027,1.173,3.733,2.133,4.373,2.453c5.227,2.773,11.627,0.747,14.4-4.48
			c0.64-1.173,0.96-2.347,1.173-3.627c2.24-18.453,8.213-47.68,16.32-65.067c2.347,2.133,4.587,4.053,5.653,5.12
			c4.267,4.053,11.093,3.84,15.04-0.533c1.173-1.173,2.027-2.667,2.453-4.267c7.04-24.213,20.053-46.827,34.667-61.013l1.707,3.733
			l1.493,3.307c2.56,5.333,8.853,7.573,14.187,5.12c1.6-0.747,2.987-1.92,4.053-3.307c14.4-19.52,41.387-45.653,61.227-58.027
			c1.6,3.307,3.2,6.613,3.947,8.32c2.453,5.333,8.747,7.787,14.08,5.333c1.387-0.64,2.56-1.493,3.52-2.56
			c10.24-11.307,39.467-31.04,60.587-40.64c0.213,3.093,0.32,5.653,0.32,6.613c0.107,5.867,5.013,10.56,10.88,10.453
			c1.92,0,3.84-0.64,5.547-1.707c28.8-18.347,57.92-32,80.64-37.973c0,0.32,0,0.64-0.107,1.067l-0.533,7.893
			c-0.32,5.867,4.16,10.88,10.027,11.2c2.133,0.107,4.267-0.427,6.187-1.6c26.347-16.107,60.267-26.347,88.107-32.64
			C481.398,52.235,471.158,86.048,455.052,112.395z"/>
	</g>
</g>
<g>
</g>
<g>
</g>
<g>
</g>
<g>
</g>
<g>
</g>
<g>
</g>
<g>
</g>
<g>
</g>
<g>
</g>
<g>
</g>
<g>
</g>
<g>
</g>
<g>
</g>
<g>
</g>
<g>
</g>
</svg>
